<svg width="100" height="100" viewBox="0 0 100 100" fill="none" xmlns="http://www.w3.org/2000/svg">
<path d="M85.5 13.5H90.5C91.8807 13.5 93 14.6193 93 16V66C93 67.3807 91.8807 68.5 90.5 68.5H85.5C84.1193 68.5 83 67.3807 83 66V16C83 14.6193 84.1193 13.5 85.5 13.5Z" stroke="#E6E6E6" stroke-width="5"/>
<path d="M80.5 42L39 42C25 42.5 20.4 50 18 62" stroke="#E6E6E6" stroke-width="15"/>
<line x1="53.5" y1="38" x2="53.5" y2="25" stroke="#E6E6E6" stroke-width="10"/>
<rect x="39.5" y="21" width="27" height="4" rx="2" stroke="#E6E6E6" stroke-width="2"/>
<path d="M11.8502 89L8.68435 99.5346" stroke="#E6E6E6" stroke-width="1.5"/>
<path d="M5 92.6843L15.5346 95.8502" stroke="#E6E6E6" stroke-width="1.5"/>
<path d="M7.15605 90.7218L8.35191 93.6917L5.71702 95.5103" stroke="#E6E6E6"/>
<path d="M14.8176 93.0243L12.1827 94.8429L13.3785 97.8127" stroke="#E6E6E6"/>
<path d="M13.4778 90.5333L10.9868 91.8731L9.64704 89.3821" stroke="#E6E6E6"/>
<path d="M7.05678 98.0013L9.54777 96.6615L10.8875 99.1525" stroke="#E6E6E6"/>
<path d="M13.2413 66L11.6418 76.8831" stroke="#E6E6E6" stroke-width="1.5"/>
<path d="M7 70.6418L17.8831 72.2413" stroke="#E6E6E6" stroke-width="1.5"/>
<path d="M8.8476 68.3865L10.4628 71.1507L8.12053 73.3333" stroke="#E6E6E6"/>
<path d="M16.7626 69.5498L14.4203 71.7324L16.0355 74.4966" stroke="#E6E6E6"/>
<path d="M15.0746 67.2802L12.8051 68.9681L11.1172 66.6985" stroke="#E6E6E6"/>
<path d="M9.80844 75.6029L12.078 73.915L13.7659 76.1845" stroke="#E6E6E6"/>
<path d="M16.3849 78L18.4244 88.8093" stroke="#E6E6E6" stroke-width="1.5"/>
<path d="M12 84.4244L22.8093 82.3849" stroke="#E6E6E6" stroke-width="1.5"/>
<path d="M13.0105 81.6896L15.4393 83.7754L13.9375 86.6029" stroke="#E6E6E6"/>
<path d="M20.8718 80.2064L19.37 83.0338L21.7988 85.1197" stroke="#E6E6E6"/>
<path d="M18.5357 78.6119L16.9411 80.948L14.605 79.3535" stroke="#E6E6E6"/>
<path d="M16.2736 88.1974L17.8682 85.8613L20.2043 87.4558" stroke="#E6E6E6"/>
</svg>
